HIERARCHY
ROOT hip
{
	OFFSET 0.000000 -102.168968 0.000000
	CHANNELS 6 Xposition Yposition Zposition Zrotation Xrotation Yrotation
	JOINT abdomen
	{
		OFFSET 0.000000 6.096001 0.000000
		CHANNELS 3 Zrotation Xrotation Yrotation
		JOINT chest
		{
			OFFSET 0.000000 15.118080 -1.219200
			CHANNELS 3 Zrotation Xrotation Yrotation
			JOINT neck
			{
				OFFSET 0.000000 18.287994 -0.487680
				CHANNELS 3 Zrotation Xrotation Yrotation
				JOINT head
				{
					OFFSET 0.000000 5.608322 0.000000
					CHANNELS 3 Zrotation Xrotation Yrotation
					End Site
					{
						OFFSET 11.948160 -6.339828 -0.975360
					}
				}
			}
			JOINT lCollar
			{
				OFFSET 6.096000 11.948166 -1.463040
				CHANNELS 3 Zrotation Xrotation Yrotation
				JOINT lShldr
				{
					OFFSET 5.852160 0.000000 0.000000
					CHANNELS 3 Zrotation Xrotation Yrotation
					JOINT lForeArm
					{
						OFFSET 18.044161 0.000000 0.000000
						CHANNELS 3 Zrotation Xrotation Yrotation
						JOINT lHand
						{
							OFFSET 15.118080 0.000000 0.000000
							CHANNELS 3 Zrotation Xrotation Yrotation
							End Site
							{
								OFFSET -11.948160 -6.339828 -0.975360
							}
						}
					}
				}
			}
			JOINT rCollar
			{
				OFFSET -6.339839 11.948166 -1.463040
				CHANNELS 3 Zrotation Xrotation Yrotation
				JOINT rShldr
				{
					OFFSET -5.608321 0.000000 0.000000
					CHANNELS 3 Zrotation Xrotation Yrotation
					JOINT rForeArm
					{
						OFFSET -18.287998 0.000000 0.000000
						CHANNELS 3 Zrotation Xrotation Yrotation
						JOINT rHand
						{
							OFFSET -14.874243 0.000000 0.000000
							CHANNELS 3 Zrotation Xrotation Yrotation
							End Site
							{
								OFFSET 5.852160 -33.649918 2.438400
							}
						}
					}
				}
			}
		}
	}
	JOINT lThigh
	{
		OFFSET 9.509760 -2.926079 2.438400
		CHANNELS 3 Zrotation Xrotation Yrotation
		JOINT lShin
		{
			OFFSET -3.657600 -35.844475 0.000000
			CHANNELS 3 Zrotation Xrotation Yrotation
			JOINT lFoot
			{
				OFFSET 0.000000 -34.381443 -2.194560
				CHANNELS 3 Zrotation Xrotation Yrotation
				End Site
				{
					OFFSET -5.852160 -33.649918 2.438400
				}
			}
		}
	}
	JOINT rThigh
	{
		OFFSET -9.509760 -2.926079 2.438400
		CHANNELS 3 Zrotation Xrotation Yrotation
		JOINT rShin
		{
			OFFSET 3.657600 -35.844475 0.000000
			CHANNELS 3 Zrotation Xrotation Yrotation
			JOINT rFoot
			{
				OFFSET 0.000000 -34.381443 -2.194560
				CHANNELS 3 Zrotation Xrotation Yrotation
				End Site
				{
					OFFSET 0.000000 -4.389120 8.290560
				}
			}
		}
	}
}
MOTION
Frames:	13
Frame Time:	0.125
0.000000 0.000000 0.000000 0.000000 0.060000 0.000000 -3.877355 5.057304 -0.646058 -3.571397 2.018957 -2.778916 0.000000 0.060000 0.000000 0.000000 0.060000 0.000000 -25.484066 15.984982 -26.844196 -5.799006 5.501840 -19.220270 4.972192 -1.582278 -0.996604 -6.999999 0.060000 0.000000 27.418428 12.871516 26.363714 37.505524 11.044659 43.454697 6.704488 -3.043542 63.276985 6.999999 0.060000 0.000000 17.924526 -43.365490 -4.582604 172.466507 48.395008 -174.922562 5.037220 42.406776 1.113844 -113.964951 -71.618332 -103.408394 -80.667839 85.308182 81.677917 1.113092 16.530443 -0.129495 
0.018562 0.039047 0.031951 0.000000 0.000000 0.000000 -3.877355 4.997304 -0.646058 -3.571397 1.958957 -2.778916 0.000000 0.000000 0.000000 0.000000 0.000000 0.000000 -25.484066 15.924981 -26.844196 -5.799006 5.441840 -19.220270 4.972192 -1.642278 -0.996604 -6.999999 0.000000 0.000000 27.418428 12.811516 26.363714 37.505524 10.984658 43.454697 6.704488 -3.103542 63.276985 6.999999 0.000000 0.000000 17.924526 -43.425491 -4.582604 172.466507 48.335007 -174.922562 5.037220 42.346775 1.113844 -113.964951 -71.678329 -103.408394 -80.667839 85.248184 81.677917 1.113092 16.470444 -0.129495 
0.149572 -0.283568 0.191911 0.000000 0.000000 0.000000 -4.785069 7.672306 -0.393430 -3.547343 2.753355 -2.025674 -0.154557 -0.084387 0.000740 0.000000 0.000000 0.000000 -25.188192 15.836984 -26.915998 -5.963744 5.471147 -16.589899 4.605443 -1.649669 -0.576464 -6.999999 0.000000 0.000000 26.644308 14.323902 26.545336 39.751228 11.024085 45.850101 5.719034 -4.393454 56.544334 6.999999 0.000000 0.000000 17.772116 -43.654964 -4.930302 172.867111 48.106152 -175.333542 5.037220 42.346775 1.113844 -115.040810 -71.317017 -104.390312 -86.594879 85.243332 87.630074 1.124049 16.375622 0.144881 
0.456154 -0.983638 0.556601 0.000000 0.000000 0.000000 -6.971363 13.510469 0.488135 -3.465472 4.570015 -0.312977 -0.589481 -0.321834 0.000380 0.000000 0.000000 0.000000 -24.397985 15.596394 -27.104256 -6.380810 5.478786 -9.663073 3.627562 -1.707266 0.412901 -6.999999 0.000000 0.000000 24.925858 17.597996 27.018106 44.787380 10.911563 51.090694 2.851047 -6.504178 41.726334 6.999999 0.000000 0.000000 17.388035 -44.145981 -5.764663 173.803375 47.609352 -176.264389 5.037220 42.346775 1.113844 -117.187935 -70.492393 -106.316154 -99.149429 85.064468 100.241035 1.162068 16.152588 0.761673 
0.808634 -1.659499 0.953238 0.000000 0.000000 0.000000 -9.604990 19.238667 1.914598 -3.308676 6.559243 1.536207 -1.261705 -0.688673 -0.007267 0.000000 0.000000 0.000000 -23.260223 15.237556 -27.366251 -6.907523 5.327256 0.110125 2.223737 -1.866238 1.563583 -6.999999 0.000000 0.000000 23.204901 20.747862 27.583553 50.161877 10.519070 56.258213 -0.684810 -7.393723 27.103710 6.999999 0.000000 0.000000 16.883924 -44.601692 -6.767956 174.890045 47.132969 -177.278931 5.037220 42.346775 1.113844 -118.980202 -69.625587 -107.844688 -110.237404 84.690712 111.385979 1.234885 15.893789 1.411533 
1.077338 -1.909485 1.209036 0.000000 0.000000 0.000000 -11.523568 21.705297 2.942634 -3.053793 7.871003 2.702515 -2.128288 -1.161003 -0.029818 0.000000 0.000000 0.000000 -21.921268 14.795738 -27.660604 -7.369600 4.937549 11.273668 0.576662 -2.139065 2.463473 -6.999999 0.000000 0.000000 22.139433 21.644617 27.791079 53.521492 10.251656 58.503365 -2.502672 -7.365546 21.271435 6.999999 0.000000 0.000000 16.380827 -44.724522 -7.606088 175.775650 46.977951 -177.986221 5.037220 42.346775 1.113843 -119.355629 -69.187775 -107.984016 -114.528778 84.511971 115.699608 1.350485 15.690874 1.784930 
1.236134 -1.427714 1.199483 0.000000 0.000000 0.000000 -12.156014 18.604372 2.555804 -2.659848 8.084658 2.762036 -3.146459 -1.714606 -0.074545 0.000000 0.000000 0.000000 -20.525911 14.308583 -27.950851 -7.605941 4.342576 22.373068 -1.140976 -2.476927 2.698255 -7.000000 0.000000 0.000000 22.416607 18.333673 25.770247 54.650967 10.570112 56.096722 -1.195825 -7.501672 30.634813 7.000000 0.000000 0.000000 15.829761 -44.324142 -8.205585 176.416809 47.331081 -178.246414 5.037220 42.346775 1.113844 -117.439774 -69.485443 -105.847557 -108.393089 84.913300 109.521294 1.550256 15.637552 1.703003 
1.351365 -0.494665 1.042877 0.000000 0.000000 0.000000 -12.245105 12.153183 1.281839 -2.150430 7.717256 2.230255 -4.273602 -2.324982 -0.146951 0.000000 0.000000 0.000000 -19.216835 13.816501 -28.207253 -7.528042 3.671121 31.964228 -2.769202 -2.773504 1.856295 -6.999999 0.000000 0.000000 22.934483 12.477177 22.854860 54.683418 11.043075 50.852917 1.792314 -6.870053 49.291386 6.999999 0.000000 0.000000 15.210174 -43.592468 -8.717496 177.003906 47.999126 -178.306976 5.037220 42.346775 1.113844 -113.879616 -70.154800 -102.052818 -93.129356 85.445923 94.180199 1.817090 15.659013 1.362443 
1.432071 0.411785 0.930648 0.000000 0.000000 0.000000 -12.155461 6.087551 -0.020588 -1.595467 7.325311 1.696766 -5.467157 -2.967511 -0.249703 0.000000 0.000000 0.000000 -18.134693 13.362241 -28.406816 -7.143839 3.082009 38.612968 -4.151495 -2.893791 -0.468453 -6.999999 0.000000 0.000000 23.172775 6.433331 20.404829 53.229359 11.147339 45.355721 4.244828 -5.177744 67.252464 6.999999 0.000000 0.000000 14.681034 -42.809593 -9.148798 177.547363 48.721996 -178.373245 5.037220 42.346775 1.113844 -110.229172 -70.730942 -98.188469 -77.138275 85.604668 78.124260 2.070986 15.595166 1.018309 
1.487293 0.813759 1.054228 0.000000 0.000000 0.000000 -11.926664 4.142737 -0.569158 -1.061688 7.466444 1.729894 -6.684480 -3.617719 -0.381926 0.000000 0.000000 0.000000 -17.418648 12.989889 -28.531443 -6.527051 2.694435 40.886921 -5.114328 -2.727890 -4.679491 -6.999999 0.000000 0.000000 23.390034 2.578398 19.409012 49.943451 10.821683 42.265659 5.124320 -4.199657 74.748016 6.999999 0.000000 0.000000 14.380432 -42.260384 -9.531611 178.046738 49.239151 -178.635010 5.037220 42.346775 1.113844 -108.496658 -70.890099 -96.291420 -73.156738 85.643631 74.125984 2.231355 15.291211 0.927907 
1.518044 0.438215 1.582793 0.000000 0.000000 0.000000 -11.355184 9.383276 0.033062 -0.452802 8.573092 2.695739 -7.882655 -4.251596 -0.538859 0.000000 0.000000 0.000000 -17.398046 12.689028 -28.528494 -5.190254 2.566267 31.283857 -5.242706 -1.974248 -16.099655 -6.999999 0.000000 0.000000 24.211361 1.848019 20.457989 43.185730 10.094182 43.006710 4.332414 -5.556868 64.907524 6.999999 0.000000 0.000000 14.374688 -42.023788 -9.986025 178.610352 49.490829 -179.324173 5.037220 42.346775 1.113844 -110.131905 -70.421379 -97.800774 -91.561325 85.705330 92.591805 2.265244 14.480585 1.296242 
1.519970 -0.411443 2.374870 0.000000 0.000000 0.000000 -10.654806 19.170815 1.101678 0.233606 10.252997 4.186600 -9.018358 -4.845907 -0.711874 0.000000 0.000000 0.000000 -18.026558 12.440474 -28.408575 -3.384572 2.215930 10.287945 -4.528072 -1.207351 -34.868832 -6.999999 0.000000 0.000000 25.525656 2.965663 22.747601 33.746403 9.130239 45.931438 1.603129 -7.661752 44.260487 6.999999 0.000000 0.000000 14.570769 -41.949364 -10.469784 179.194931 49.612507 179.731049 5.037220 42.346775 1.113844 -113.588257 -69.513466 -101.168907 -119.233002 84.763817 120.383560 2.220500 13.321476 1.938606 
1.494053 -1.348425 3.155918 0.000000 0.000000 0.000000 -10.105595 28.645630 1.968807 0.787424 11.827879 5.631141 -10.047745 -5.378384 -0.888849 0.000000 0.000000 0.000000 -18.881077 12.274699 -28.245874 -2.169526 1.556630 -11.548675 -3.772753 -1.192917 -53.575310 -6.999999 0.000000 0.000000 26.765417 4.897850 25.131821 24.960354 8.292095 49.103146 -1.825493 -8.357632 23.506187 6.999999 0.000000 0.000000 14.860284 -41.978985 -10.779788 179.564072 49.639545 178.957855 5.037220 42.346775 1.113843 -116.832230 -68.577515 -104.393997 -135.192047 83.108307 136.470490 2.136938 12.298521 2.528578 
